<svg xmlns="http://www.w3.org/2000/svg" xmlns:xlink="http://www.w3.org/1999/xlink" viewBox="0,0,256,256" width="64px" height="64px"><g fill="none" fill-rule="nonzero" stroke="none" stroke-width="1" stroke-linecap="butt" stroke-linejoin="miter" stroke-miterlimit="10" stroke-dasharray="" stroke-dashoffset="0" font-family="none" font-weight="none" font-size="none" text-anchor="none" style="mix-blend-mode: normal"><g transform="scale(2,2)"><path d="M94,124h-60c-11.05,0 -20,-8.95 -20,-20v-80c0,-11.05 8.95,-20 20,-20h60c11.05,0 20,8.95 20,20v80c0,11.05 -8.95,20 -20,20z" fill-opacity="0" fill="#ffffff"></path><path d="M94,127h-60c-12.68,0 -23,-10.32 -23,-23v-80c0,-12.68 10.32,-23 23,-23h60c12.68,0 23,10.32 23,23v80c0,12.68 -10.32,23 -23,23zM34,7c-9.37,0 -17,7.63 -17,17v80c0,9.37 7.63,17 17,17h60c9.37,0 17,-7.63 17,-17v-80c0,-9.37 -7.63,-17 -17,-17z" fill="#fefeff"></path><path d="M94,57h-60c-1.66,0 -3,-1.34 -3,-3c0,-1.66 1.34,-3 3,-3h60c1.66,0 3,1.34 3,3c0,1.66 -1.34,3 -3,3z" fill="#ffffff"></path><path d="M94,77h-60c-1.66,0 -3,-1.34 -3,-3c0,-1.66 1.34,-3 3,-3h60c1.66,0 3,1.34 3,3c0,1.66 -1.34,3 -3,3z" fill="#ffffff"></path><path d="M64,97h-30c-1.66,0 -3,-1.34 -3,-3c0,-1.66 1.34,-3 3,-3h30c1.66,0 3,1.34 3,3c0,1.66 -1.34,3 -3,3z" fill="#ffffff"></path></g></g></svg>